<svg height="480pt" viewBox="0 -40 480 480" width="480pt" xmlns="http://www.w3.org/2000/svg"><path d="m248 56v336h-112v-336zm0 0" fill="#d3843d"/><path d="m472 8v384h-96v-384zm0 0" fill="#995f5b"/><path d="m472 40v64h-96v-64zm0 0" fill="#bfbfbf"/><path d="m472 136v64h-96v-64zm0 0" fill="#bfbfbf"/><path d="m376 160h40v16h-40zm0 0" fill="#ad6327"/><path d="m432 160h16v16h-16zm0 0" fill="#ad6327"/><path d="m136 8v384h-128v-384zm0 0" fill="#995f5b"/><path d="m136 40v64h-128v-64zm0 0" fill="#f9bb4b"/><path d="m136 296v64h-128v-64zm0 0" fill="#f9bb4b"/><path d="m376 24v368h-128v-368zm0 0" fill="#eed98f"/><path d="m344 88c0 17.671875-14.328125 32-32 32s-32-14.328125-32-32 14.328125-32 32-32 32 14.328125 32 32zm0 0" fill="#aabece"/><path d="m376 328v32h-128v-32zm0 0" fill="#4f83d1"/><path d="m376 296v32h-128v-32zm0 0" fill="#bfbfbf"/><path d="m248 96v32h-112v-32zm0 0" fill="#aabece"/><path d="m248 344v48h-112v-48zm0 0" fill="#bfbfbf"/><path d="m168 152h48v16h-48zm0 0" fill="#f1c056"/><path d="m184 184h16v16h-16zm0 0" fill="#f1c056"/><path d="m8 232h128v32h-128zm0 0" fill="#eed98f"/><path d="m104 168c0 17.671875-14.328125 32-32 32s-32-14.328125-32-32 14.328125-32 32-32 32 14.328125 32 32zm0 0" fill="#bfbfbf"/><path d="m472 0h-96c-4.417969 0-8 3.582031-8 8v8h-120c-4.417969 0-8 3.582031-8 8v24h-96v-40c0-4.417969-3.582031-8-8-8h-128c-4.417969 0-8 3.582031-8 8v384c0 4.417969 3.582031 8 8 8h464c4.417969 0 8-3.582031 8-8v-384c0-4.417969-3.582031-8-8-8zm-8 192h-80v-16h32v-16h-32v-16h80zm-336 160h-112v-48h112zm336-256h-80v-48h80zm-96 224h-112v-16h112zm-128-200h-96v-16h96zm-224 120h112v16h-112zm112-16h-112v-112h112zm-112 48h112v16h-112zm128-136h96v200h-96zm112 200h112v16h-112zm128-208v-16h80v16zm0-112h80v16h-80zm-128 16h112v256h-112zm-16 32v24h-96v-24zm-112 32h-112v-48h112zm0-80v16h-112v-16zm-112 368v-16h112v16zm128-32h96v32h-96zm112 16h112v16h-112zm128 16v-176h80v176zm0 0"/><path d="m432 160h16v16h-16zm0 0"/><path d="m312 128c22.089844 0 40-17.910156 40-40s-17.910156-40-40-40-40 17.910156-40 40c.027344 22.082031 17.917969 39.972656 40 40zm0-64c13.253906 0 24 10.746094 24 24s-10.746094 24-24 24-24-10.746094-24-24 10.746094-24 24-24zm0 0"/><path d="m168 152h48v16h-48zm0 0"/><path d="m184 184h16v16h-16zm0 0"/><path d="m72 208c22.089844 0 40-17.910156 40-40s-17.910156-40-40-40-40 17.910156-40 40c.027344 22.082031 17.917969 39.972656 40 40zm0-64c13.253906 0 24 10.746094 24 24s-10.746094 24-24 24-24-10.746094-24-24 10.746094-24 24-24zm0 0"/></svg>